<?xml version="1.0" encoding="utf-8"?>

<!DOCTYPE svg PUBLIC "-//W3C//DTD SVG 1.1//EN" "http://www.w3.org/Graphics/SVG/1.1/DTD/svg11.dtd">
<!-- Uploaded to: SVG Repo, www.svgrepo.com, Generator: SVG Repo Mixer Tools -->
<svg version="1.1" id="_x32_" xmlns="http://www.w3.org/2000/svg" xmlns:xlink="http://www.w3.org/1999/xlink" 
	 width="800px" height="800px" viewBox="0 0 512 512"  xml:space="preserve">
<style type="text/css">
<![CDATA[
	.st0{fill:#000000;}
]]>
</style>
<g>
	<path class="st0" d="M395.102,384.969c-25.156-15.406-33.359-25.688-33.359-25.688c12.672-21.891,39.781-39.766,51.328-174.5
		C420.68,96.109,377.93,12.109,255.992,0C134.07,12.109,91.336,96.109,98.93,184.781c11.547,134.734,38.656,152.609,51.328,174.5
		c0,0-8.203,10.281-33.359,25.688c-12.391,7.563-78.422,49.406-59.188,85.969c0,0,44.297,41.063,198.281,41.063
		c154,0,198.297-41.063,198.297-41.063C473.523,434.375,407.492,392.531,395.102,384.969z M140.523,243.641l-6.078-74.797h243.109
		l-6.063,74.797H140.523z"/>
	<path class="st0" d="M201.258,193.25c-6.953,0-12.594,5.625-12.594,12.594s5.641,12.594,12.594,12.594
		c6.969,0,12.609-5.625,12.609-12.594S208.227,193.25,201.258,193.25z"/>
	<path class="st0" d="M310.727,193.25c-6.969,0-12.609,5.625-12.609,12.594s5.641,12.594,12.609,12.594s12.594-5.625,12.594-12.594
		S317.695,193.25,310.727,193.25z"/>
</g>
</svg>